<svg width="20" height="34" viewBox="0 0 20 34" fill="none" xmlns="http://www.w3.org/2000/svg">
<g id="&#233;&#151;&#170;&#231;&#148;&#181;logo">
<g id="Component 120">
<path id="Vector 585" d="M6.73557 20.125C6.88018 20.615 5.10873 22.7792 4.20493 23.8C2.72873 22.75 -0.729959 19.9675 0.137688 14.4375C1.00534 8.9075 6.58494 6.35833 8.90469 6.125L19.931 0L12.5199 11.375H9.62773C3.66265 13.9125 6.55481 19.5125 6.73557 20.125Z" fill="white"/>
<path id="Vector 586" d="M13.1956 12.9167C13.051 12.4033 14.8224 10.1361 15.7262 9.06667C17.2024 10.1667 20.6611 13.0817 19.7935 18.875C18.9258 24.6683 13.3462 27.3389 11.0265 27.5833L0.000118256 34L7.41127 22.0833H10.3034C16.2685 19.425 13.3763 13.5583 13.1956 12.9167Z" fill="white"/>
</g>
</g>
</svg>
